<svg xmlns="http://www.w3.org/2000/svg" width="19.948" height="20" viewBox="0 0 19.948 20">
  <g id="Layer_2" data-name="Layer 2" transform="translate(-2.052 -2)">
    <g id="checkmark-circle">
      <path id="Path_29843" data-name="Path 29843" d="M9.71,11.29a1,1,0,0,0-1.42,1.42l3,3a.97.97,0,0,0,1.43-.05l7-8a1,1,0,0,0-1.5-1.32L12,13.54Z" fill="#e8b591"/>
      <path id="Path_29844" data-name="Path 29844" d="M21,11a1,1,0,0,0-1,1,8,8,0,1,1-8-8,8.79,8.79,0,0,1,1.9.22,1,1,0,1,0,.47-1.94A10.54,10.54,0,0,0,12,2,10,10,0,1,0,22,12a1,1,0,0,0-1-1Z" fill="#e8b591"/>
    </g>
  </g>
</svg>
