<svg id="Layer_2" data-name="Layer 2" xmlns="http://www.w3.org/2000/svg" width="18.747" height="23.86" viewBox="0 0 18.747 23.86">
  <path id="Path_29834" data-name="Path 29834" d="M14.374,25.86a.852.852,0,0,0,.528-.187c.324-.29,8.845-7.158,8.845-14.3A9.374,9.374,0,1,0,5,11.374c0,7.141,8.521,14.009,8.845,14.3A.852.852,0,0,0,14.374,25.86ZM6.7,11.374a7.669,7.669,0,1,1,15.339,0c0,5.368-5.854,10.916-7.669,12.518C12.558,22.289,6.7,16.742,6.7,11.374Z" transform="translate(-5 -2)" fill="#e8b591"/>
  <path id="Path_29835" data-name="Path 29835" d="M19.521,12.261a4.261,4.261,0,1,0-4.261,4.261,4.261,4.261,0,0,0,4.261-4.261Zm-6.817,0a2.556,2.556,0,1,1,2.556,2.556A2.556,2.556,0,0,1,12.7,12.261Z" transform="translate(-5.887 -2.887)" fill="#e8b591"/>
</svg>
