<svg xmlns="http://www.w3.org/2000/svg" width="30.277" height="14.504" viewBox="0 0 30.277 14.504">
  <path id="Path_29810" data-name="Path 29810" d="M93.969,308.792A10.318,10.318,0,0,0,90.988,306a7.113,7.113,0,0,0-4.243-.968,7.226,7.226,0,0,0-3.672,1.392A7.247,7.247,0,0,0,81.917,317a7.248,7.248,0,0,0,7.448,2.206c2.791-.835,4.808-3.321,6.021-5.863.147-.312.288-.631.41-.954.028-.077.06-.154.091-.231.049-.123-.049.112.011-.025.021-.049.042-.1.067-.151.053-.119.109-.238.165-.358a14.352,14.352,0,0,1,1.147-1.971c.112-.161.228-.323.351-.48-.063.081,0,0,.018-.021s.049-.06.07-.091c.053-.067.109-.133.161-.2.21-.249.431-.491.663-.722a9.352,9.352,0,0,1,.733-.659l.077-.063c-.07.056.014-.011.032-.025.067-.049.133-.1.2-.147.144-.1.295-.2.445-.291a5.788,5.788,0,0,1,1.852-.761c.179-.042.358-.077.54-.1-.077.011.018,0,.028,0,.056-.007.112-.01.168-.018.095-.007.189-.014.284-.018a6.979,6.979,0,0,1,1.049.035c.039,0,.081.01.119.014-.1-.014-.018,0,0,0,.077.014.158.025.235.039.165.032.326.067.487.112.144.039.288.081.428.13.074.025.147.053.221.081l.109.042c.021.007.042.018.063.025-.053-.025-.053-.021,0,0a7.3,7.3,0,0,1,.821.428c.123.077.245.158.365.242.056.039.112.081.168.123.123.091-.077-.067.039.032.035.028.07.056.105.088a7.047,7.047,0,0,1,.663.631c.1.112.2.231.3.347.011.014.06.077,0,0l.07.091c.049.067.1.137.147.207a6.657,6.657,0,0,1,.466.8c.035.07.067.14.1.21.018.035.032.07.046.105.035.084-.046-.116.011.025s.116.305.168.463a6.717,6.717,0,0,1,.228.943c0,.032.011.063.014.095.025.151-.007-.067,0,.028.011.074.018.144.025.217.018.179.028.358.028.537a6.963,6.963,0,0,1-.056.975c.014-.1,0-.018,0,0-.007.046-.014.095-.025.14-.014.07-.025.14-.039.21-.035.161-.074.323-.119.484s-.091.3-.144.445c-.025.067-.049.13-.074.2-.011.025-.049.119-.011.025-.018.042-.039.084-.056.126a6.488,6.488,0,0,1-.438.814c-.081.13-.168.256-.259.379-.018.025-.035.049-.056.074-.091.123.067-.077-.032.039-.049.06-.095.119-.147.175a6.6,6.6,0,0,1-.659.67c-.053.046-.105.091-.158.133-.035.028-.07.056-.105.088-.014.011-.077.06,0,0-.133.1-.27.2-.414.291a6.469,6.469,0,0,1-.807.449l-.21.095c.1-.042-.084.032-.112.042-.154.06-.309.112-.466.158a7.677,7.677,0,0,1-.926.21c-.151.025.067-.007-.028,0-.039,0-.081.011-.119.014-.081.007-.161.018-.242.021-.165.01-.326.018-.491.018-.193,0-.386-.007-.579-.025a4.152,4.152,0,0,1-.47-.063,6.164,6.164,0,0,1-1.059-.295c-.074-.028-.147-.056-.221-.088.095.039-.063-.028-.067-.028l-.095-.042c-.165-.077-.323-.158-.48-.249a8.392,8.392,0,0,1-.866-.572c-.011-.007-.077-.06-.014-.01l-.1-.077c-.06-.046-.116-.095-.172-.144-.137-.116-.274-.238-.4-.365-.221-.21-.431-.431-.635-.663-.1-.119-.2-.238-.3-.358-.049-.06-.095-.119-.144-.179.067.084-.063-.084-.084-.109a.542.542,0,0,0-.719-.189.528.528,0,0,0-.189.719,10.318,10.318,0,0,0,2.981,2.788,7.113,7.113,0,0,0,4.243.968,7.226,7.226,0,0,0,3.672-1.392,7.391,7.391,0,0,0,2.406-3.1,7.235,7.235,0,0,0-8.693-9.682c-2.791.835-4.808,3.321-6.017,5.863-.147.312-.288.631-.41.954-.028.077-.06.154-.091.231-.049.123.049-.112-.011.025-.021.049-.042.1-.067.151-.053.119-.109.238-.165.358a14.355,14.355,0,0,1-1.147,1.971c-.112.161-.228.323-.351.48.063-.081,0,0-.018.021s-.049.06-.07.091c-.053.067-.109.133-.161.2-.21.249-.431.491-.663.722A9.353,9.353,0,0,1,91.3,317l-.077.063c.07-.056-.014.011-.032.025-.067.049-.133.1-.2.147-.144.1-.295.2-.445.291a5.85,5.85,0,0,1-1.848.761c-.179.042-.358.077-.54.1.077-.011-.018,0-.028,0-.056.007-.112.011-.168.018-.095.007-.189.014-.284.018a6.971,6.971,0,0,1-1.049-.035c-.039,0-.081-.011-.119-.014.1.014.018,0,0,0-.077-.014-.158-.025-.235-.039-.165-.032-.326-.067-.487-.112-.144-.039-.288-.081-.428-.13-.074-.025-.147-.053-.221-.081l-.109-.042c-.021-.007-.042-.018-.063-.025.053.025.053.021,0,0a7.289,7.289,0,0,1-.821-.428c-.123-.077-.245-.158-.365-.242-.056-.039-.112-.081-.168-.123-.123-.091.077.067-.039-.032-.035-.028-.07-.056-.105-.088a7.048,7.048,0,0,1-.663-.631c-.1-.112-.2-.231-.3-.347-.011-.014-.06-.077,0,0l-.07-.091c-.049-.067-.1-.137-.147-.207a6.66,6.66,0,0,1-.466-.8c-.035-.07-.067-.14-.1-.21-.018-.035-.032-.07-.046-.105-.035-.084.046.116-.011-.025s-.116-.305-.168-.463a6.719,6.719,0,0,1-.228-.943c0-.032-.011-.063-.014-.095-.025-.151.007.067,0-.028-.011-.074-.018-.144-.025-.217-.018-.179-.028-.358-.028-.537a6.961,6.961,0,0,1,.056-.975c-.014.1,0,.018,0,0,.007-.046.014-.095.025-.14.014-.07.025-.14.039-.21.035-.161.074-.323.119-.484s.091-.3.144-.445c.025-.067.049-.13.074-.2.011-.025.049-.119.011-.025.018-.042.039-.084.056-.126a6.488,6.488,0,0,1,.438-.814c.081-.13.168-.256.259-.379.018-.025.035-.049.056-.074.091-.123-.067.077.032-.039.049-.06.095-.119.147-.175a6.608,6.608,0,0,1,.659-.67c.053-.046.105-.091.158-.133.035-.028.07-.056.105-.088.014-.011.077-.06,0,0,.133-.1.27-.2.414-.291a6.475,6.475,0,0,1,.807-.449l.21-.095c-.1.042.084-.032.112-.042.154-.06.309-.112.466-.158a7.672,7.672,0,0,1,.926-.21c.151-.025-.067.007.028,0,.039,0,.081-.011.119-.014.081-.007.161-.018.242-.021.165-.011.326-.018.491-.018.193,0,.386.007.579.025a4.144,4.144,0,0,1,.47.063,6.164,6.164,0,0,1,1.059.295c.074.028.147.056.221.088-.095-.039.063.028.067.028l.095.042c.165.077.323.158.48.249a8.393,8.393,0,0,1,.866.572c.011.007.077.06.014.01l.1.077c.06.046.116.095.172.144.137.116.274.238.4.365.221.21.431.431.635.663.1.119.2.238.3.358.049.06.095.119.144.179-.067-.084.063.084.084.109a.521.521,0,1,0,.9-.53Z" transform="translate(-80.144 -304.99)" fill="#e8b591"/>
</svg>
