<svg id="Layer_2" data-name="Layer 2" xmlns="http://www.w3.org/2000/svg" width="30.15" height="21.487" viewBox="0 0 30.15 21.487">
  <path id="Path_29836" data-name="Path 29836" d="M16.025,22.743a14.478,14.478,0,0,1-4.359-.672A1.005,1.005,0,0,1,11,20.733h0a1,1,0,0,1,1.266-.573,12.442,12.442,0,0,0,7.487,0,1,1,0,0,1,1.266.573h0a1.005,1.005,0,0,1-.643,1.337,14.482,14.482,0,0,1-4.352.673Z" transform="translate(-0.95 -5.236)" fill="#e8b591"/>
  <path id="Path_29837" data-name="Path 29837" d="M27.633,26.8H4.518A3.518,3.518,0,0,1,1,23.28V8.828A3.518,3.518,0,0,1,4.518,5.31H27.633A3.518,3.518,0,0,1,31.15,8.828V23.28A3.518,3.518,0,0,1,27.633,26.8ZM4.518,7.32A1.508,1.508,0,0,0,3.01,8.828V23.28a1.508,1.508,0,0,0,1.508,1.508H27.633A1.508,1.508,0,0,0,29.14,23.28V8.828A1.508,1.508,0,0,0,27.633,7.32Z" transform="translate(-1 -5.31)" fill="#e8b591"/>
  <path id="Path_29838" data-name="Path 29838" d="M16.068,14.822a4.513,4.513,0,0,1-2.241-.593L2.52,8.2,3.465,6.43,14.8,12.46a2.513,2.513,0,0,0,2.492,0L28.65,6.43,29.6,8.2l-11.337,6.03A4.432,4.432,0,0,1,16.068,14.822Z" transform="translate(-0.992 -5.304)" fill="#e8b591"/>
</svg>
