<svg xmlns="http://www.w3.org/2000/svg" xmlns:xlink="http://www.w3.org/1999/xlink" width="120.796" height="34.868" viewBox="0 0 120.796 34.868">
  <defs>
    <clipPath id="clip-path">
      <rect id="Rectangle_17612" data-name="Rectangle 17612" width="120.796" height="34.868" fill="#fff"/>
    </clipPath>
  </defs>
  <g id="Logo_Tahaqom_1" data-name="Logo Tahaqom 1" clip-path="url(#clip-path)">
    <path id="Path_29839" data-name="Path 29839" d="M177.368,0a16.067,16.067,0,0,0-14.843,9.868,15.926,15.926,0,0,0,3.482,17.421,16.112,16.112,0,0,0,24.72-2.422,15.925,15.925,0,0,0-2-20.184A16.108,16.108,0,0,0,177.368,0Zm0,24.135a8.192,8.192,0,0,1-7.568-5.03,8.121,8.121,0,0,1,1.775-8.882,8.214,8.214,0,0,1,12.6,1.234,8.119,8.119,0,0,1-1.018,10.29A8.213,8.213,0,0,1,177.368,24.135Z" transform="translate(-75.3 -0.029)" fill="#00cccb" fill-rule="evenodd"/>
    <path id="Path_29840" data-name="Path 29840" d="M191.981,24.6a6.241,6.241,0,0,0-4.06-5.832A6.294,6.294,0,0,0,181,20.481a6.227,6.227,0,0,0,1.816,9.663,6.3,6.3,0,0,0,3.677.653c3.572-.448,8.965,4.609,9.011,8.168a4.475,4.475,0,0,0,2.767,4.072,4.516,4.516,0,0,0,4.855-.911,4.476,4.476,0,0,0-2.907-7.69c-3.012-.143-7.669-4.611-8.242-8.072a3.834,3.834,0,0,1-.037-1.063,6.32,6.32,0,0,0,.039-.705" transform="translate(-83.706 -8.513)" fill="#00cccb" fill-rule="evenodd"/>
    <path id="Path_29841" data-name="Path 29841" d="M9.144,10.955a.6.6,0,0,1-.189-.451.644.644,0,1,1,1.289,0,.6.6,0,0,1-.189.451.658.658,0,0,1-.911,0ZM10.49,10.5a.621.621,0,0,1,.189-.456.645.645,0,0,1,.466-.189.6.6,0,0,1,.45.189.63.63,0,0,1,.183.456.626.626,0,0,1-.634.634.653.653,0,0,1-.466-.178A.61.61,0,0,1,10.49,10.5Zm.8,5.506H9.312a5.4,5.4,0,0,1-1.561-.2,2.515,2.515,0,0,1-1.042-.576,2.315,2.315,0,0,1-.561-.87,3.473,3.473,0,0,1-.173-1.142A4.917,4.917,0,0,1,6.478,11l1.163.4a4.293,4.293,0,0,0-.3,1.409,1.193,1.193,0,0,0,.5,1.058,3,3,0,0,0,1.619.335h1.823a4.19,4.19,0,0,0,1.713-.257.854.854,0,0,0,.529-.817,3.548,3.548,0,0,0-.021-.382,3.315,3.315,0,0,0-.073-.451q-.052-.257-.084-.382t-.12-.477q-.089-.346-.11-.43l1.32-.377a7.67,7.67,0,0,1,.44,2.4,3.976,3.976,0,0,1-.115,1,2.473,2.473,0,0,1-.372.817,2.251,2.251,0,0,1-.671.623,3.408,3.408,0,0,1-1.022.393A6.276,6.276,0,0,1,11.287,16.01Zm4.7-2.169v-5.6h1.425v5.076a.821.821,0,0,0,.257.7,1.287,1.287,0,0,0,.765.189H18.5l.183.031L18.6,15.979l-.178.031h-.068Q15.988,16.01,15.988,13.841Zm6.162-2.682a1.937,1.937,0,0,1,1.561.723,2.816,2.816,0,0,1,.608,1.875,2.269,2.269,0,0,1-.639,1.661,2.389,2.389,0,0,1-1.776.644,2.6,2.6,0,0,1-1.252-.272,1.833,1.833,0,0,1-.744-.712,1.468,1.468,0,0,1-.566.7,1.577,1.577,0,0,1-.849.231l-.183-.031.084-1.739.183-.031a.987.987,0,0,0,1.022-.581,3.533,3.533,0,0,1,.959-1.823A2.243,2.243,0,0,1,22.15,11.159Zm-.162,3.112a2.256,2.256,0,0,0,.859-.136q.325-.141.325-.367a.732.732,0,0,0-.34-.587,1.309,1.309,0,0,0-.822-.262,1.508,1.508,0,0,0-.838.241,1.6,1.6,0,0,0-.576.712A1.943,1.943,0,0,0,21.988,14.271Zm7.98-.063h.581l.183.094-.089,1.6-.178.1h-.712a3.551,3.551,0,0,1-.43.938,3.158,3.158,0,0,1-.686.749,2.9,2.9,0,0,1-1,.508,4.592,4.592,0,0,1-1.325.178,6.071,6.071,0,0,1-1.64-.2l.1-1.577a9.447,9.447,0,0,0,1.556.126,4.355,4.355,0,0,0,1.582-.241,1.771,1.771,0,0,0,.864-.618H27.265a2.34,2.34,0,0,1-.87-.152,1.624,1.624,0,0,1-.613-.414,1.883,1.883,0,0,1-.351-.608,2.338,2.338,0,0,1-.115-.744,3.1,3.1,0,0,1,.309-1.388,2.5,2.5,0,0,1,.854-1,2.14,2.14,0,0,1,1.226-.372,1.8,1.8,0,0,1,1.184.419,2.549,2.549,0,0,1,.775,1.09A4.6,4.6,0,0,1,29.968,14.208Zm-3.536-.419q0,.2.272.314a2.158,2.158,0,0,0,.744.1h1.414a1.875,1.875,0,0,0-.482-.917,1.133,1.133,0,0,0-.833-.34,1.167,1.167,0,0,0-.817.272A.764.764,0,0,0,26.432,13.789Zm7.792.419.183.031-.084,1.739-.183.031a1.782,1.782,0,0,1-1.881-1.084,1.608,1.608,0,0,1-1.713,1.084l-.183-.031.084-1.739.183-.031a1.42,1.42,0,0,0,.854-.183.994.994,0,0,0,.231-.781v-5h1.425v4.924a1.15,1.15,0,0,0,.225.843A1.357,1.357,0,0,0,34.223,14.208Zm5.822,0h.3l.183.031-.089,1.739-.178.031h-.388a9.107,9.107,0,0,1-1.655-.115,2.372,2.372,0,0,1-1.048-.487,6.306,6.306,0,0,1-2.949.6l-.183-.031.084-1.739.183-.031q.922,0,1.5-.031a10.8,10.8,0,0,1-1.074-1.063v-1.5a1.871,1.871,0,0,1,.309-.2,5.926,5.926,0,0,1,.571-.278,4.459,4.459,0,0,1,.854-.257,5.1,5.1,0,0,1,1.032-.1,2.565,2.565,0,0,1,1.65.477,1.738,1.738,0,0,1,.351,2.19,2.815,2.815,0,0,1-.744.765Q39.1,14.208,40.045,14.208Zm-1.451-1.3q0-.21-.346-.335a2.591,2.591,0,0,0-.875-.126A3.953,3.953,0,0,0,35.9,12.7q.744.676,1.4,1.2Q38.594,13.344,38.594,12.909Zm8.693,1.3.178.031-.084,1.739-.183.031a1.518,1.518,0,0,1-1.587-1,1.828,1.828,0,0,1-.733.744,2.433,2.433,0,0,1-1.252.293,2.063,2.063,0,0,1-1.76-.749,1.669,1.669,0,0,1-1.519.707l-.183-.031.084-1.739.183-.031a1.37,1.37,0,0,0,1.011-.267v-.079a2.918,2.918,0,0,1,.314-1.352,2.487,2.487,0,0,1,.885-.985,2.315,2.315,0,0,1,1.278-.367,2.024,2.024,0,0,1,1.4.5,3.42,3.42,0,0,1,.9,1.514,2.212,2.212,0,0,0,.419.817A.886.886,0,0,0,47.287,14.208Zm-4.72-.45a.414.414,0,0,0,.288.367,2.027,2.027,0,0,0,.838.136,2.175,2.175,0,0,0,1.4-.377,1.393,1.393,0,0,0-1.362-.932,1.428,1.428,0,0,0-.833.236A.686.686,0,0,0,42.567,13.758Zm5.806-5.516H49.8v5.013a3.791,3.791,0,0,1-.189,1.252,2.123,2.123,0,0,1-.534.859,2.279,2.279,0,0,1-.8.487,3.022,3.022,0,0,1-1,.157l-.183-.031.084-1.739.183-.031a1.275,1.275,0,0,0,.781-.183.928.928,0,0,0,.231-.739ZM52.65,16.01h-1.43V8.241h1.43Zm11.377-1.8.183.031-.084,1.739-.183.031a1.9,1.9,0,0,1-.99-.246,1.373,1.373,0,0,1-.587-.739,1.916,1.916,0,0,1-.744.739,2.487,2.487,0,0,1-1.252.288,2.063,2.063,0,0,1-1.823-.838,4.205,4.205,0,0,0-.954.267.374.374,0,0,0-.2.356V19.4h-1.43V15.827a5.291,5.291,0,0,1,.031-.629,1.9,1.9,0,0,1,.136-.487,1.341,1.341,0,0,1,.246-.388,1.909,1.909,0,0,1,.414-.309,4.027,4.027,0,0,1,.592-.272q.33-.126.822-.272a2.719,2.719,0,0,1,.807-1.65,2.3,2.3,0,0,1,1.661-.66,2.028,2.028,0,0,1,1.4.5,3.426,3.426,0,0,1,.911,1.514,2.124,2.124,0,0,0,.409.817A.867.867,0,0,0,64.027,14.208Zm-4.72-.45a.414.414,0,0,0,.288.367,2.027,2.027,0,0,0,.838.136,2.268,2.268,0,0,0,1.409-.361,1.393,1.393,0,0,0-1.362-.948,1.421,1.421,0,0,0-.833.241A.68.68,0,0,0,59.306,13.758Zm11.092.45.183.031L70.5,15.979l-.183.031H70.1a4.292,4.292,0,0,1-.853-.073,2.135,2.135,0,0,1-.687-.293,3.85,3.85,0,0,1-.618-.492q-.278-.278-.718-.791a1.926,1.926,0,0,1-.225.676,1.612,1.612,0,0,1-.476.513,2.273,2.273,0,0,1-.807.346,5.257,5.257,0,0,1-1.174.115h-.513l-.183-.031.084-1.739.183-.031h.513a5.757,5.757,0,0,0,1.357-.11.727.727,0,0,0,.524-.424L64.735,11.6V10.248l4.741-2.326.534,1.331-3.74,1.792,1.844,2a4.907,4.907,0,0,0,1.1.943A2.578,2.578,0,0,0,70.4,14.208Zm8.289,0,.183.031-.089,1.739-.183.031a3.681,3.681,0,0,1-.886-.094,1.871,1.871,0,0,1-.613-.262,1.325,1.325,0,0,1-.393-.43,2.187,2.187,0,0,1-.215-.566,4.343,4.343,0,0,1-.078-.707h-.273a16.77,16.77,0,0,1-1.624,1.074,7.349,7.349,0,0,1-2.7.911,11.845,11.845,0,0,1-1.419.073l-.183-.031L70.3,14.24l.183-.031q.571,0,.964-.021t1-.1A8.075,8.075,0,0,0,73.7,13.8a11.3,11.3,0,0,0,1.362-.519l-.146-.063-.121-.058c-.216-.091-.376-.155-.476-.194s-.246-.089-.446-.152a3.024,3.024,0,0,0-.56-.136,3.59,3.59,0,0,0-.556-.042,2.731,2.731,0,0,0-1.5.471l-.5-1.179a2.243,2.243,0,0,1,.838-.686,2.779,2.779,0,0,1,1.341-.325,3.225,3.225,0,0,1,.561.047,2.415,2.415,0,0,1,.524.141q.252.1.409.173t.419.215q.257.141.351.189a5.245,5.245,0,0,0,.927.4,3.472,3.472,0,0,0,.833.079H78.1l-.141,1.781h-.629A2.383,2.383,0,0,0,78.688,14.208Zm.264-3.808a.6.6,0,0,1-.189-.45.644.644,0,1,1,1.288,0,.6.6,0,0,1-.188.45.658.658,0,0,1-.911,0Zm1.346-.45a.622.622,0,0,1,.189-.456.645.645,0,0,1,.466-.189.6.6,0,0,1,.451.189.63.63,0,0,1,.183.456.626.626,0,0,1-.634.634.653.653,0,0,1-.466-.178A.611.611,0,0,1,80.3,9.949ZM78.668,16.01l-.183-.073.084-1.645.183-.084a1.377,1.377,0,0,0,.822-.194.709.709,0,0,0,.262-.6,9.612,9.612,0,0,0-.335-1.907l1.3-.388a7.126,7.126,0,0,1,.388,2.211,2.816,2.816,0,0,1-.65,1.97A2.393,2.393,0,0,1,78.668,16.01Z" transform="translate(-3.294 4.241)" fill="#00cccb"/>
  </g>
</svg>
