<svg xmlns="http://www.w3.org/2000/svg" width="1093.325" height="255.215" viewBox="0 0 1093.325 255.215">
  <path id="Path_29842" data-name="Path 29842" d="M-365.513-27.193a49.922,49.922,0,0,0,11.46-3.576,34.184,34.184,0,0,0,8.665-6.268l7.137,19.688a15.466,15.466,0,0,1-7.383,11.628C-352.7-1.384-366.5,0-366.5,0q-21.656,0-31.992-11.566-2.707,32.854-21.9,50.818t-51.68,17.965q-33.715,0-52.787-18.765t-19.072-49.526a133.91,133.91,0,0,1,13.166-58.447L-512.431-63a125.063,125.063,0,0,0-7.383,22.887,107.206,107.206,0,0,0-2.953,23.748q0,22.518,13.9,34.33t39.006,11.813q24.609,0,38.944-12.489t14.335-36.237V-178.664h21.656V-56.232q0,16.611,7.014,22.825T-365.513-27.193Zm153.754,0a88.526,88.526,0,0,0,17.669.855A156.241,156.241,0,0,0-173.3-29.285l18.582,18.2s-17.2,6.329-31.794,9.1A117.547,117.547,0,0,1-213.112,0q-13.658,0-23.625-5.66A33.832,33.832,0,0,1-251.38-22.148q-5.414,9.721-17.227,16.427T-296.661.984c-17.584,0-30.725-5.173-39.6-15.734-.576-.683-1.987-2.6-1.987-2.6l-7.137-19.687s-.246-3.4-.246-6.275a64.315,64.315,0,0,1,6.952-29.716,55.265,55.265,0,0,1,19.564-21.718,51.051,51.051,0,0,1,28.239-8.121q36.3,0,50.08,49.711,3.937,14.889,10.274,20.426T-211.759-27.193Zm-82.934,1.23q13.9,0,22.764-4.307t12.8-10.582q-8.613-34.7-35.068-34.7-13.658,0-22.825,8.429a27.333,27.333,0,0,0-9.167,20.979q0,9.105,8.244,14.643T-294.692-25.963ZM-152.381-12.3l-2.336,1.215-18.582-18.2s-12.407-12.592-18.765-19.564S-203.2-61.482-206.4-65.83V-92.285a46.609,46.609,0,0,1,6.891-4.737q4.676-2.769,12.3-6.4a86.865,86.865,0,0,1,18.519-6.029,102.343,102.343,0,0,1,22.087-2.4q23.256,0,36.545,10.213T-96.764-74.32a37.4,37.4,0,0,1-8.429,23.81q-8.429,10.644-25.286,22.579l-13.312,9.612Zm-36.545-63q24.24,26.578,38.021,39.252,17.35-10.459,25.963-18.272t8.613-14.95q0-7.014-9.105-11.566t-23.256-4.553a82.9,82.9,0,0,0-22.148,2.953A79.9,79.9,0,0,0-188.926-75.3ZM-62-178.664H-40.34v124.77q0,27.316-14.15,40.605T-92.019,0l-59-13.073,20.543-14.858,39.444.738a66.757,66.757,0,0,0,12.059-.923,25.217,25.217,0,0,0,8.982-3.507,15.378,15.378,0,0,0,6.029-7.444A33.236,33.236,0,0,0-62-51.434ZM11.532,0H-10.124V-178.664H11.532ZM190.826-123.17a11.985,11.985,0,0,1-8.859-3.753,12.286,12.286,0,0,1-3.691-8.921,12.047,12.047,0,0,1,3.753-8.8,12.047,12.047,0,0,1,8.8-3.753,12.083,12.083,0,0,1,8.859,3.691,12.083,12.083,0,0,1,3.691,8.859,12.443,12.443,0,0,1-3.568,8.982A11.969,11.969,0,0,1,190.826-123.17Zm32.977,0a11.969,11.969,0,0,1-8.982-3.691,12.443,12.443,0,0,1-3.568-8.982,12.294,12.294,0,0,1,3.568-8.859,11.969,11.969,0,0,1,8.982-3.691,12.25,12.25,0,0,1,8.859,3.753,11.954,11.954,0,0,1,3.814,8.8,12.185,12.185,0,0,1-3.753,8.921A12.185,12.185,0,0,1,223.8-123.17Zm33.346,95.977L253.58,0q-13.9,58.939-86.994,58.939-41.959,0-63.185-19.626T82.176-14.643q0-29.408,13.412-57.955l18.334,6.768a116.882,116.882,0,0,0-7.506,22.456,102.63,102.63,0,0,0-3.076,23.44q0,51.68,66.814,51.68,57.217,0,66.322-32.73H201.408q-22.887,0-34.884-11.566t-12-30.27q0-24.855,14.827-41.9t37.837-17.042q15.627,0,27.07,9.167T251.427-67.86q5.722,15.565,5.722,35.376Zm-83.18-17.719q0,8.367,7.752,12.8t22.148,4.43h34.576v-.738a64.949,64.949,0,0,0-1.907-15.442,66.441,66.441,0,0,0-5.66-15.012,31.21,31.21,0,0,0-10.459-11.689,26.684,26.684,0,0,0-15.2-4.491q-14.643,0-22.948,9.29T173.969-44.912ZM265.092,0H253.58l3.19-26.209,9.307-.984q14.889,0,22.087-5.783t7.2-17.965q0-17.6-7.137-48.85l20.426-5.291q7.875,30.27,7.875,51.68,0,25.594-13.9,39.5T265.092,0Zm.336,33.559a12.286,12.286,0,0,1-8.921-3.691,12.192,12.192,0,0,1,.062-17.657,12.25,12.25,0,0,1,8.859-3.753,12.083,12.083,0,0,1,8.859,3.691,12.083,12.083,0,0,1,3.691,8.859,12.235,12.235,0,0,1-3.568,8.921A12.071,12.071,0,0,1,265.428,33.559Zm32.977,0a12.071,12.071,0,0,1-8.982-3.63,12.235,12.235,0,0,1-3.568-8.921,12.294,12.294,0,0,1,3.568-8.859,12.477,12.477,0,0,1,17.78.062,12.047,12.047,0,0,1,3.753,8.8,12.083,12.083,0,0,1-3.691,8.859A12.083,12.083,0,0,1,298.4,33.559ZM407.067-27.193,405.345,0a74.407,74.407,0,0,1-12.182,28.424A63.991,63.991,0,0,1,369.784,48.3,70.152,70.152,0,0,1,337.3,55.74c-8.613,0-5.832-.943-11.656-2.83l-7.785-25.471a137.518,137.518,0,0,0,17.227.984,65.388,65.388,0,0,0,19.134-2.646,47.818,47.818,0,0,0,14.52-6.952,43.6,43.6,0,0,0,9.905-10.09A41.932,41.932,0,0,0,384.55-3.076a41.809,41.809,0,0,0,1.846-12.3,135.3,135.3,0,0,0-.984-14.95q-.984-8.675-1.846-13.966t-3.384-19.134q-2.522-13.843-3.384-18.519l20.918-5.537Q405.96-46.512,407.067-27.193Zm99.675-145.2a12.666,12.666,0,0,1-9.536,4.061,12.862,12.862,0,0,1-9.6-4.061,13.327,13.327,0,0,1-3.937-9.6,12.815,12.815,0,0,1,3.876-9.413,13.11,13.11,0,0,1,9.659-3.876,12.906,12.906,0,0,1,9.6,3.876,12.921,12.921,0,0,1,3.814,9.413A13.436,13.436,0,0,1,506.743-172.389Zm-9.536,25.225a43.357,43.357,0,0,1,27.747,9.413,56.244,56.244,0,0,1,17.657,24.486,92.575,92.575,0,0,1,5.783,33.407q0,23.256-4.122,38.883T531.414-16.365A48.319,48.319,0,0,1,510.742-3.691Q498.806,0,481.58,0H405.345l1.938-27.193h74.912q5.906,0,10.521-.369a82,82,0,0,0,9.536-1.354,36.013,36.013,0,0,0,8.613-2.769,30.812,30.812,0,0,0,7.075-4.8,25.858,25.858,0,0,0,5.6-7.137,41.951,41.951,0,0,0,3.63-9.967,71.676,71.676,0,0,0,1.784-13.228q-12.428,19.2-38.76,19.2-22.025,0-33.592-11.936T445.035-91.178q0-23.871,14.581-39.929T497.207-147.164Zm-4.43,74.074q12.8,0,21.779-4.307a33.1,33.1,0,0,0,13.658-11.32,50.873,50.873,0,0,0-3.691-10.89,52.673,52.673,0,0,0-6.337-10.151,28.759,28.759,0,0,0-9.905-7.937,29.3,29.3,0,0,0-13.289-3.015q-14.15,0-22.333,8.244t-8.183,18.457q0,9.967,7.629,15.442T492.777-73.09Z" transform="translate(544.431 195.775)" fill="none" stroke="#37373a" stroke-width="1"/>
</svg>
