<svg xmlns="http://www.w3.org/2000/svg" width="96.552" height="96.772" viewBox="0 0 96.552 96.772">
  <g id="Pencil_with_Ruler" transform="translate(0.5 0.55)">
    <g id="_Group_" transform="translate(1.5 1.45)">
      <path id="_Path_" d="M10.314,63.372,69.371,3.433a6.39,6.39,0,0,1,9.255,0L91.848,16.655a6.39,6.39,0,0,1,0,9.255l-59.5,59.5L1.5,94.222Z" transform="translate(-1.5 -1.45)" fill="none" stroke="#898989" stroke-linecap="round" stroke-linejoin="round" stroke-width="4"/>
      <path id="_Path_2" d="M36.877,26.977,14.4,4.5" transform="translate(42.453 8.942)" fill="none" stroke="#898989" stroke-linecap="round" stroke-linejoin="round" stroke-width="4"/>
      <path id="_Path_3" d="M25.536,37.536V28.722l-8.814-4.407L12.314,15.5H3.5" transform="translate(5.314 46.422)" fill="none" stroke="#898989" stroke-linecap="round" stroke-linejoin="round" stroke-width="4"/>
      <path id="_Path_4" d="M15.381,31.281,2.6,18.5" transform="translate(2.248 56.643)" fill="none" stroke="#898989" stroke-linecap="round" stroke-linejoin="round" stroke-width="4"/>
      <path id="_Path_5" d="M52.776,7,6.5,53.276" transform="translate(15.536 17.46)" fill="none" stroke="#898989" stroke-linecap="round" stroke-linejoin="round" stroke-width="4"/>
      <g id="_Group_2" transform="translate(0 0.22)">
        <path id="_Path_6" d="M25.74,47.776,1.5,23.536,23.536,1.5l24.24,24.24" transform="translate(-1.5 -1.5)" fill="none" stroke="#898989" stroke-linecap="round" stroke-linejoin="round" stroke-width="4"/>
        <path id="_Path_7" d="M34.036,12l24.24,24.24L36.24,58.276,12,34.036" transform="translate(34.276 34.276)" fill="none" stroke="#898989" stroke-linecap="round" stroke-linejoin="round" stroke-width="4"/>
      </g>
      <path id="_Path_8" d="M15.5,27.314,24.314,18.5" transform="translate(46.201 56.643)" fill="none" stroke="#898989" stroke-linecap="round" stroke-linejoin="round" stroke-width="4"/>
      <path id="_Path_9" d="M13.5,25.314,22.314,16.5" transform="translate(39.387 49.829)" fill="none" stroke="#898989" stroke-linecap="round" stroke-linejoin="round" stroke-width="4"/>
      <path id="_Path_10" d="M5.5,17.314,14.314,8.5" transform="translate(12.129 22.571)" fill="none" stroke="#898989" stroke-linecap="round" stroke-linejoin="round" stroke-width="4"/>
      <path id="_Path_11" d="M3.5,15.314,12.314,6.5" transform="translate(5.314 15.756)" fill="none" stroke="#898989" stroke-linecap="round" stroke-linejoin="round" stroke-width="4"/>
    </g>
  </g>
</svg>
