<svg xmlns="http://www.w3.org/2000/svg" width="86.515" height="103.822" viewBox="0 0 86.515 103.822">
  <g id="Group_28437" data-name="Group 28437" transform="translate(-8 -1.998)">
    <path id="Path_29830" data-name="Path 29830" d="M42,48H62.764v3.461H42Zm0,6.921H62.764v3.461H42Zm0,6.921H62.764V65.3H42Z" transform="translate(24.83 33.596)" fill="#898989"/>
    <path id="Path_29831" data-name="Path 29831" d="M91.034,71.525A13.815,13.815,0,0,0,80.567,58.589L65.244,54.759a18.981,18.981,0,0,0,4.43-8.122l4.67-2.334a5.163,5.163,0,0,0,2.869-4.642V38.338a5.2,5.2,0,0,0-5.191-5.191h-1.73v-3.08a5.127,5.127,0,0,0-.021-7.7,15.583,15.583,0,0,0-14.043-15.1,6.894,6.894,0,0,0-13.4,0,15.583,15.583,0,0,0-14.043,15.1,5.127,5.127,0,0,0-.021,7.7v3.08h-1.73a5.2,5.2,0,0,0-5.191,5.191V39.66A5.163,5.163,0,0,0,24.711,44.3l4.67,2.336a18.981,18.981,0,0,0,4.43,8.12L18.487,58.589A13.825,13.825,0,0,0,8,72.018v33.8H89.324a5.2,5.2,0,0,0,5.191-5.191V76.4a5.182,5.182,0,0,0-3.481-4.879Zm-3.507-.311H83.815a5.182,5.182,0,0,0-4.873-3.461H75.482a5.182,5.182,0,0,0-4.873,3.461H69.2l5.648-10.489,4.886,1.223a10.34,10.34,0,0,1,7.8,9.266Zm-6.854,1.73v1.73H73.752v-1.73a1.732,1.732,0,0,1,1.73-1.73h3.461a1.732,1.732,0,0,1,1.73,1.73ZM61.38,57.977,49.527,75.095,37.675,57.977c.339.211.658.45,1.009.64l4.217,2.3a13.78,13.78,0,0,0,13.254,0l4.217-2.3c.353-.19.67-.429,1.007-.64ZM47.8,78.677V97.225L27.677,59.859l6.046-1.512Zm12.431,23.683h-7.8l7.485-13.9v12.169A5.13,5.13,0,0,0,60.228,102.359ZM59.909,76.4v4.753L51.258,97.225V78.677L65.332,58.347l6.046,1.512L65.265,71.214H65.1A5.2,5.2,0,0,0,59.909,76.4Zm12.112-39.8a1.732,1.732,0,0,1,1.73,1.73V39.66a1.722,1.722,0,0,1-.957,1.547l-2.544,1.272c.007-.19.04-.377.04-.571v-5.3ZM30.494,26.226a1.732,1.732,0,0,1,1.73-1.73H66.83a1.73,1.73,0,0,1,0,3.461H32.224a1.732,1.732,0,0,1-1.73-1.73ZM42.606,10.791v6.783h3.461V8.923a3.461,3.461,0,0,1,6.921,0v8.652h3.461V10.791A12.121,12.121,0,0,1,66.692,21.035H32.363A12.119,12.119,0,0,1,42.606,10.791ZM26.26,41.207A1.722,1.722,0,0,1,25.3,39.66V38.338a1.732,1.732,0,0,1,1.73-1.73h1.73v5.3c0,.194.033.381.038.571Zm5.964-9.79H66.83V41.908A15.568,15.568,0,0,1,58.715,55.58L54.5,57.88a10.339,10.339,0,0,1-9.942,0l-4.217-2.3a15.568,15.568,0,0,1-8.115-13.669Zm-20.764,40.6a10.368,10.368,0,0,1,7.864-10.07l4.886-1.223,22.418,41.635H30.494v-17.3H27.033v17.3H11.461Zm79.594,28.611a1.732,1.732,0,0,1-1.73,1.73H65.1a1.732,1.732,0,0,1-1.73-1.73V76.4a1.732,1.732,0,0,1,1.73-1.73h5.191v3.461H84.134V74.674h5.191a1.732,1.732,0,0,1,1.73,1.73Z" transform="translate(0 0)" fill="#898989"/>
  </g>
</svg>
