<svg xmlns="http://www.w3.org/2000/svg" width="93.032" height="86.641" viewBox="0 0 93.032 86.641">
  <g id="_Group_" data-name=" Group " transform="translate(-21.999 -38)">
    <path id="_Compound_Path_" data-name=" Compound Path " d="M79.5,38H31.9A9.94,9.94,0,0,0,22,47.959v52.809a1.972,1.972,0,0,0,.545,1.384l21.213,21.873a1.981,1.981,0,0,0,1.418.615H79.5a9.9,9.9,0,0,0,9.861-9.959V47.959A9.9,9.9,0,0,0,79.5,38ZM43.262,117.73,28.653,102.782H41.2a2.032,2.032,0,0,1,2.061,1.961Zm42.128-3.049a5.925,5.925,0,0,1-5.864,5.985H47.237V104.743A6.01,6.01,0,0,0,41.2,98.807H25.974V47.959A5.962,5.962,0,0,1,31.9,41.974H79.5a5.925,5.925,0,0,1,5.887,5.962v66.745Z" fill="#898989"/>
    <path id="_Path_" data-name=" Path " d="M129.37,168h-37.8a1.987,1.987,0,0,0,0,3.974h37.8a1.987,1.987,0,0,0,0-3.974Z" transform="translate(-54.157 -104.167)" fill="#898989"/>
    <path id="_Path_2" data-name=" Path 2" d="M129.37,228h-37.8a1.987,1.987,0,0,0,0,3.974h37.8a1.987,1.987,0,1,0,0-3.974Z" transform="translate(-54.157 -152.244)" fill="#898989"/>
    <path id="_Path_3" data-name=" Path 3" d="M129.37,288h-37.8a1.987,1.987,0,0,0,0,3.974h37.8a1.987,1.987,0,0,0,0-3.974Z" transform="translate(-54.157 -200.321)" fill="#898989"/>
    <path id="_Path_4" data-name=" Path 4" d="M91.574,115.974h17.45a1.987,1.987,0,1,0,0-3.974H91.574a1.987,1.987,0,0,0,0,3.974Z" transform="translate(-54.157 -59.295)" fill="#898989"/>
    <path id="_Compound_Path_2" data-name=" Compound Path 2" d="M409.625,47.821a8.856,8.856,0,0,0-8.845,8.839l-.04,60.013a1.987,1.987,0,0,0,.224.918l6.9,13.266a1.987,1.987,0,0,0,3.526,0l6.9-13.266a1.987,1.987,0,0,0,.224-.918l-.04-60.013a8.856,8.856,0,0,0-8.845-8.839ZM414.5,67.927h-9.757V65.94H414.5Zm0,3.974.028,42.724h-9.818l.028-42.724ZM409.625,51.8a4.878,4.878,0,0,1,4.871,4.869l0,5.3h-9.748l0-5.3A4.878,4.878,0,0,1,409.625,51.8Zm0,73.776L406,118.6h7.249Z" transform="translate(-303.478 -7.869)" fill="#898989"/>
  </g>
</svg>
