<svg xmlns="http://www.w3.org/2000/svg" width="92.563" height="89.589" viewBox="0 0 92.563 89.589">
  <g id="plan" transform="translate(-120.9 -216.756)">
    <g id="Group_28431" data-name="Group 28431" transform="translate(120.9 216.756)">
      <path id="Path_29812" data-name="Path 29812" d="M135.68,252.762h59.1c1.841,0,2.239.4,2.239,2.239v55.24c0,1.841-.4,2.239-2.239,2.239H128.912c-4.9,0-8.012-3.135-8.012-8.062V254.5a7.468,7.468,0,0,1,14.531-2.662C135.481,252.115,135.581,252.413,135.68,252.762Zm.124,3.011V302.7a6.9,6.9,0,0,1-.025,1.02,1.422,1.422,0,0,1-1.393,1.269,1.4,1.4,0,0,1-1.518-1.219,5.257,5.257,0,0,1-.05-.647,4.542,4.542,0,0,0-3.633-4.006,4.276,4.276,0,0,0-4.7,2.239,7.9,7.9,0,0,0-.6,3.061c-.075,3.309,1.742,5.076,5.026,5.076h65.043V255.8C174.547,255.772,155.213,255.772,135.8,255.772ZM132.794,297.5V254.553a4.487,4.487,0,1,0-8.958.025v42.077c0,.249.025.523.05.846A7.621,7.621,0,0,1,132.794,297.5Z" transform="translate(-120.9 -239.314)" fill="#898989"/>
      <path id="Path_29813" data-name="Path 29813" d="M318.678,420.631V386.94c0-1.717.423-2.14,2.165-2.14h7.938c1.344,0,1.866.523,1.866,1.866v44.042c0,1.344-.523,1.866-1.866,1.866H278.766c-1.344,0-1.866-.523-1.866-1.866V422.7c0-1.592.448-2.065,2.04-2.065h39.738Zm-38.792,8.883h47.675v-5.847h-10.4c0,.523.025.97,0,1.443a1.481,1.481,0,0,1-1.493,1.493,1.46,1.46,0,0,1-1.468-1.493c-.025-.473,0-.97,0-1.443h-1.468c-.124,1.194.348,2.862-1.493,2.886-1.916.025-1.393-1.717-1.568-2.861h-1.418c-.149,2.264-.473,2.961-1.493,2.886-1.941-.124-1.443-1.717-1.568-2.911h-1.468c0,.523.025,1,0,1.443a1.481,1.481,0,0,1-2.961-.025c-.025-.473,0-.97,0-1.418h-1.468c-.1,1.169.348,2.787-1.418,2.886-1.991.1-1.493-1.692-1.617-2.862H294.84c-.124,2.264-.448,2.961-1.493,2.886-1.941-.124-1.418-1.742-1.592-2.886h-1.443c0,.5.025.921,0,1.369a1.5,1.5,0,1,1-2.986-.025c-.025-.448,0-.9,0-1.319h-1.468c-.124,1.169.348,2.812-1.418,2.886-1.991.075-1.468-1.717-1.617-2.886h-2.911C279.886,425.607,279.886,427.523,279.886,429.514Zm41.828-41.7v32.721h5.847V387.811Z" transform="translate(-238.083 -342.986)" fill="#898989"/>
      <path id="Path_29814" data-name="Path 29814" d="M225.344,216.767h21.449c2.712,0,4.205,1.493,4.205,4.205v.921a3.713,3.713,0,0,1-3.857,3.807c-4.23.025-8.46,0-12.69,0H203.87a5.76,5.76,0,0,1-1.717-.274c-2.687-.871-5.35-1.792-8.037-2.662-.746-.249-1.294-.647-1.319-1.468-.025-.9.547-1.319,1.319-1.568,2.762-.9,5.524-1.866,8.311-2.762a4.865,4.865,0,0,1,1.468-.2C211.037,216.742,218.2,216.767,225.344,216.767Zm-17.592,5.9h29.785V219.8H207.752Zm-3.085.323V219.7c-1.966-.025-3.583.921-5.325,1.418v.274C201.059,221.917,202.8,222.44,204.667,222.987Zm40.385-.224c1.02-.249,2.215.5,2.812-.523.323-.547.249-1.916-.1-2.14a7.128,7.128,0,0,0-2.712-.473Zm-3.036-.075V219.8h-1.369v2.886Z" transform="translate(-174.907 -216.756)" fill="#898989"/>
      <path id="Path_29823" data-name="Path 29823" d="M213.7,348.791h15.95c1.468,0,1.966.5,1.966,1.966v16.97c0,1.468-.5,1.966-1.966,1.966H194.766c-1.468,0-1.966-.5-1.966-1.941V332.866c0-1.468.5-1.966,1.941-1.966h16.97c1.518,0,1.991.5,1.991,2.04v15.85Zm-17.866-14.9v14.88h3.981c1.244,0,1.941.572,1.916,1.518-.025.921-.7,1.443-1.891,1.468h-4.006v14.855h14.88v-3.981c0-1.244.572-1.941,1.518-1.916.921.025,1.443.7,1.468,1.891v4.006h14.855v-14.83H213.7v3.558c0,.3.025.622,0,.921a1.482,1.482,0,0,1-2.961-.124c-.025-1.443,0-2.911,0-4.4-1.543,0-2.961.025-4.379,0a1.475,1.475,0,0,1-1.543-1.767,1.509,1.509,0,0,1,1.642-1.219h4.255v-14.88C205.714,333.886,200.812,333.886,195.836,333.886Z" transform="translate(-174.909 -302.498)" fill="#898989"/>
      <path id="Path_29824" data-name="Path 29824" d="M303.152,297.619c-4.081,0-8.137.025-12.217-.025a2.2,2.2,0,0,1-1.493-.547,1.594,1.594,0,0,1-.249-1.418c.149-.4.7-.7,1.12-.946.2-.124.547-.05.821-.05h24.808a1.471,1.471,0,0,1,1.418,1.443,1.445,1.445,0,0,1-1.443,1.518c-1.294.05-2.613.025-3.907.025C309.074,297.644,306.113,297.644,303.152,297.619Z" transform="translate(-247.266 -275.238)" fill="#898989"/>
      <path id="Path_29825" data-name="Path 29825" d="M303.058,312.767H315a4.809,4.809,0,0,1,.846.025,1.48,1.48,0,0,1,0,2.936,4.737,4.737,0,0,1-.846.025H290.94a3.747,3.747,0,0,1-.746-.025,1.494,1.494,0,0,1-1.393-1.493,1.471,1.471,0,0,1,1.393-1.468,7.463,7.463,0,0,1,.746,0C294.971,312.742,299.027,312.767,303.058,312.767Z" transform="translate(-247.022 -288.868)" fill="#898989"/>
      <path id="Path_29826" data-name="Path 29826" d="M303.058,354.767H315a4.809,4.809,0,0,1,.846.025,1.48,1.48,0,0,1,0,2.936,4.74,4.74,0,0,1-.846.025H290.94a3.749,3.749,0,0,1-.746-.025,1.494,1.494,0,0,1-1.393-1.493,1.471,1.471,0,0,1,1.393-1.468c.249-.025.5,0,.746,0C294.971,354.742,299.027,354.767,303.058,354.767Z" transform="translate(-247.022 -320.417)" fill="#898989"/>
      <path id="Path_29827" data-name="Path 29827" d="M296.911,333.686h-6.345c-1.169,0-1.866-.572-1.866-1.493s.672-1.493,1.866-1.493h12.69c1.169,0,1.866.547,1.866,1.493,0,.921-.7,1.493-1.866,1.493C301.141,333.711,299.026,333.686,296.911,333.686Z" transform="translate(-246.947 -302.348)" fill="#898989"/>
      <path id="Path_29828" data-name="Path 29828" d="M296.935,375.686H290.59c-1.12,0-1.767-.547-1.792-1.468-.025-.946.672-1.518,1.816-1.518H303.4c1.12,0,1.792.547,1.792,1.443.025.921-.672,1.518-1.816,1.518C301.239,375.711,299.075,375.686,296.935,375.686Z" transform="translate(-247.02 -333.897)" fill="#898989"/>
      <path id="Path_29829" data-name="Path 29829" d="M464.268,549.761a1.481,1.481,0,1,1,1.493-1.468A1.476,1.476,0,0,1,464.268,549.761Z" transform="translate(-377.726 -464.676)" fill="#898989"/>
    </g>
  </g>
</svg>
